REM DIRINDEX 1\2\4\8,1\2\4\9,1\2\4\10,1\2\5\11,1\2\5\12,1\2\5\13,1\2\5\14,1\2\5\15,1\3\6\16,1\3\6\17,1\3\6\18,1\3\7\19,1\3\7\20,1\3\7\21,1\3\7\22,1\3\7\23
REM DIRNAME "folder01","folder02","folder03","folder04","folder05","folder06","folder07","folder08","folder09","folder10","folder11","folder12","folder13","folder14","folder15","folder16","folder17","folder18","folder19","folder20","folder21","folder22","folder23"
TITLE ""
FILE "LR_black_phrase_E_01.mp3" MP3
  TRACK 01 AUDIO
    TITLE "0:"
    INDEX 01 00:00:00
  TRACK 02 AUDIO
    TITLE "8:cjc171_00001"
    INDEX 01 00:00:08
  TRACK 03 AUDIO
    TITLE "0:"
    INDEX 01 00:01:23
  TRACK 04 AUDIO
    TITLE "9:cjc171_00002"
    INDEX 01 00:01:55
  TRACK 05 AUDIO
    TITLE "0:"
    INDEX 01 00:03:54
  TRACK 06 AUDIO
    TITLE "10:cjc171_00003"
    INDEX 01 00:04:37
  TRACK 07 AUDIO
    TITLE "0:"
    INDEX 01 00:06:34
  TRACK 08 AUDIO
    TITLE "8:cjc171_00004"
    INDEX 01 00:07:32
  TRACK 09 AUDIO
    TITLE "0:"
    INDEX 01 00:08:67
  TRACK 10 AUDIO
    TITLE "9:cjc171_00005"
    INDEX 01 00:09:21
  TRACK 11 AUDIO
    TITLE "0:"
    INDEX 01 00:11:53
  TRACK 12 AUDIO
    TITLE "10:cjc171_00006"
    INDEX 01 00:12:33
  TRACK 13 AUDIO
    TITLE "0:"
    INDEX 01 00:14:65
  TRACK 14 AUDIO
    TITLE "8:cjc171_00007"
    INDEX 01 00:15:69
  TRACK 15 AUDIO
    TITLE "0:"
    INDEX 01 00:17:30
  TRACK 16 AUDIO
    TITLE "9:cjc171_00008"
    INDEX 01 00:17:58
  TRACK 17 AUDIO
    TITLE "0:"
    INDEX 01 00:20:44
  TRACK 18 AUDIO
    TITLE "10:cjc171_00009"
    INDEX 01 00:21:26
  TRACK 19 AUDIO
    TITLE "0:"
    INDEX 01 00:24:13
  TRACK 20 AUDIO
    TITLE "8:cjc171_00010"
    INDEX 01 00:25:18
  TRACK 21 AUDIO
    TITLE "0:"
    INDEX 01 00:26:41
  TRACK 22 AUDIO
    TITLE "9:cjc171_00011"
    INDEX 01 00:26:70
  TRACK 23 AUDIO
    TITLE "0:"
    INDEX 01 00:28:56
  TRACK 24 AUDIO
    TITLE "10:cjc171_00012"
    INDEX 01 00:29:34
  TRACK 25 AUDIO
    TITLE "0:"
    INDEX 01 00:31:17
  TRACK 26 AUDIO
    TITLE "8:cjc171_00013"
    INDEX 01 00:32:20
  TRACK 27 AUDIO
    TITLE "0:"
    INDEX 01 00:33:57
  TRACK 28 AUDIO
    TITLE "9:cjc171_00014"
    INDEX 01 00:34:09
  TRACK 29 AUDIO
    TITLE "0:"
    INDEX 01 00:36:26
  TRACK 30 AUDIO
    TITLE "10:cjc171_00015"
    INDEX 01 00:37:08
  TRACK 31 AUDIO
    TITLE "0:"
    INDEX 01 00:39:22
  TRACK 32 AUDIO
    TITLE "8:cjc171_00016"
    INDEX 01 00:40:25
  TRACK 33 AUDIO
    TITLE "0:"
    INDEX 01 00:41:41
  TRACK 34 AUDIO
    TITLE "9:cjc171_00017"
    INDEX 01 00:41:60
  TRACK 35 AUDIO
    TITLE "0:"
    INDEX 01 00:44:08
  TRACK 36 AUDIO
    TITLE "10:cjc171_00018"
    INDEX 01 00:44:53
  TRACK 37 AUDIO
    TITLE "0:"
    INDEX 01 00:47:00
  TRACK 38 AUDIO
    TITLE "8:cjc171_00019"
    INDEX 01 00:48:05
  TRACK 39 AUDIO
    TITLE "0:"
    INDEX 01 00:49:34
  TRACK 40 AUDIO
    TITLE "9:cjc171_00020"
    INDEX 01 00:49:66
  TRACK 41 AUDIO
    TITLE "0:"
    INDEX 01 00:51:68
  TRACK 42 AUDIO
    TITLE "10:cjc171_00021"
    INDEX 01 00:52:42
  TRACK 43 AUDIO
    TITLE "0:"
    INDEX 01 00:54:47
  TRACK 44 AUDIO
    TITLE "8:cjc171_00022"
    INDEX 01 00:55:45
  TRACK 45 AUDIO
    TITLE "0:"
    INDEX 01 00:57:00
  TRACK 46 AUDIO
    TITLE "9:cjc171_00023"
    INDEX 01 00:57:30
  TRACK 47 AUDIO
    TITLE "0:"
    INDEX 01 00:59:29
  TRACK 48 AUDIO
    TITLE "10:cjc171_00024"
    INDEX 01 01:00:07
  TRACK 49 AUDIO
    TITLE "0:"
    INDEX 01 01:02:06
  TRACK 50 AUDIO
    TITLE "8:cjc171_00025"
    INDEX 01 01:03:11
  TRACK 51 AUDIO
    TITLE "0:"
    INDEX 01 01:04:12
  TRACK 52 AUDIO
    TITLE "9:cjc171_00026"
    INDEX 01 01:04:44
  TRACK 53 AUDIO
    TITLE "0:"
    INDEX 01 01:06:33
  TRACK 54 AUDIO
    TITLE "10:cjc171_00027"
    INDEX 01 01:07:15
  TRACK 55 AUDIO
    TITLE "0:"
    INDEX 01 01:09:04
  TRACK 56 AUDIO
    TITLE "8:cjc171_00028"
    INDEX 01 01:10:07
  TRACK 57 AUDIO
    TITLE "0:"
    INDEX 01 01:11:22
  TRACK 58 AUDIO
    TITLE "9:cjc171_00029"
    INDEX 01 01:11:52
  TRACK 59 AUDIO
    TITLE "0:"
    INDEX 01 01:13:33
  TRACK 60 AUDIO
    TITLE "10:cjc171_00030"
    INDEX 01 01:14:13
  TRACK 61 AUDIO
    TITLE "0:"
    INDEX 01 01:15:69
  TRACK 62 AUDIO
    TITLE "8:cjc171_00031"
    INDEX 01 01:16:72
  TRACK 63 AUDIO
    TITLE "0:"
    INDEX 01 01:18:20
  TRACK 64 AUDIO
    TITLE "9:cjc171_00032"
    INDEX 01 01:18:52
  TRACK 65 AUDIO
    TITLE "0:"
    INDEX 01 01:20:39
  TRACK 66 AUDIO
    TITLE "10:cjc171_00033"
    INDEX 01 01:21:19
  TRACK 67 AUDIO
    TITLE "0:"
    INDEX 01 01:23:08
  TRACK 68 AUDIO
    TITLE "8:cjc171_00034"
    INDEX 01 01:24:11
  TRACK 69 AUDIO
    TITLE "0:"
    INDEX 01 01:25:28
  TRACK 70 AUDIO
    TITLE "9:cjc171_00035"
    INDEX 01 01:25:50
  TRACK 71 AUDIO
    TITLE "0:"
    INDEX 01 01:27:68
  TRACK 72 AUDIO
    TITLE "10:cjc171_00036"
    INDEX 01 01:28:42
  TRACK 73 AUDIO
    TITLE "0:"
    INDEX 01 01:30:63
  TRACK 74 AUDIO
    TITLE "8:cjc171_00037"
    INDEX 01 01:31:68
  TRACK 75 AUDIO
    TITLE "0:"
    INDEX 01 01:33:16
  TRACK 76 AUDIO
    TITLE "9:cjc171_00038"
    INDEX 01 01:33:45
  TRACK 77 AUDIO
    TITLE "0:"
    INDEX 01 01:36:02
  TRACK 78 AUDIO
    TITLE "10:cjc171_00039"
    INDEX 01 01:36:57
  TRACK 79 AUDIO
    TITLE "0:"
    INDEX 01 01:39:13
  TRACK 80 AUDIO
    TITLE "8:cjc171_00040"
    INDEX 01 01:40:16
  TRACK 81 AUDIO
    TITLE "0:"
    INDEX 01 01:41:19
  TRACK 82 AUDIO
    TITLE "9:cjc171_00041"
    INDEX 01 01:41:47
  TRACK 83 AUDIO
    TITLE "0:"
    INDEX 01 01:43:71
  TRACK 84 AUDIO
    TITLE "10:cjc171_00042"
    INDEX 01 01:44:53
  TRACK 85 AUDIO
    TITLE "0:"
    INDEX 01 01:47:00
  TRACK 86 AUDIO
    TITLE "8:cjc171_00043"
    INDEX 01 01:48:08
  TRACK 87 AUDIO
    TITLE "0:"
    INDEX 01 01:49:31
  TRACK 88 AUDIO
    TITLE "9:cjc171_00044"
    INDEX 01 01:49:60
  TRACK 89 AUDIO
    TITLE "0:"
    INDEX 01 01:51:73
  TRACK 90 AUDIO
    TITLE "10:cjc171_00045"
    INDEX 01 01:52:52
  TRACK 91 AUDIO
    TITLE "0:"
    INDEX 01 01:54:65
  TRACK 92 AUDIO
    TITLE "8:cjc171_00046"
    INDEX 01 01:55:70
  TRACK 93 AUDIO
    TITLE "0:"
    INDEX 01 01:57:12
  TRACK 94 AUDIO
    TITLE "9:cjc171_00047"
    INDEX 01 01:57:42
  TRACK 95 AUDIO
    TITLE "0:"
    INDEX 01 02:00:21
  TRACK 96 AUDIO
    TITLE "10:cjc171_00048"
    INDEX 01 02:00:70
  TRACK 97 AUDIO
    TITLE "0:"
    INDEX 01 02:03:48
  TRACK 98 AUDIO
    TITLE "8:cjc171_00049"
    INDEX 01 02:04:48
  TRACK 99 AUDIO
    TITLE "0:"
    INDEX 01 02:05:67
  TRACK 100 AUDIO
    TITLE "9:cjc171_00050"
    INDEX 01 02:06:25
  TRACK 101 AUDIO
    TITLE "0:"
    INDEX 01 02:09:12
  TRACK 102 AUDIO
    TITLE "10:cjc171_00051"
    INDEX 01 02:09:67
  TRACK 103 AUDIO
    TITLE "0:"
    INDEX 01 02:12:51
  TRACK 104 AUDIO
    TITLE "8:cjc171_00052"
    INDEX 01 02:13:55
  TRACK 105 AUDIO
    TITLE "0:"
    INDEX 01 02:14:66
  TRACK 106 AUDIO
    TITLE "9:cjc171_00053"
    INDEX 01 02:15:20
  TRACK 107 AUDIO
    TITLE "0:"
    INDEX 01 02:17:33
  TRACK 108 AUDIO
    TITLE "10:cjc171_00054"
    INDEX 01 02:18:13
  TRACK 109 AUDIO
    TITLE "0:"
    INDEX 01 02:20:25
  TRACK 110 AUDIO
    TITLE "8:cjc171_00055"
    INDEX 01 02:21:33
  TRACK 111 AUDIO
    TITLE "0:"
    INDEX 01 02:22:67
  TRACK 112 AUDIO
    TITLE "9:cjc171_00056"
    INDEX 01 02:23:18
  TRACK 113 AUDIO
    TITLE "0:"
    INDEX 01 02:25:28
  TRACK 114 AUDIO
    TITLE "10:cjc171_00057"
    INDEX 01 02:26:00
  TRACK 115 AUDIO
    TITLE "0:"
    INDEX 01 02:28:11
  TRACK 116 AUDIO
    TITLE "8:cjc171_00058"
    INDEX 01 02:29:09
  TRACK 117 AUDIO
    TITLE "0:"
    INDEX 01 02:30:28
  TRACK 118 AUDIO
    TITLE "9:cjc171_00059"
    INDEX 01 02:30:55
  TRACK 119 AUDIO
    TITLE "0:"
    INDEX 01 02:32:72
  TRACK 120 AUDIO
    TITLE "10:cjc171_00060"
    INDEX 01 02:33:53
  TRACK 121 AUDIO
    TITLE "0:"
    INDEX 01 02:35:64
  TRACK 122 AUDIO
    TITLE "8:cjc171_00061"
    INDEX 01 02:36:71
  TRACK 123 AUDIO
    TITLE "0:"
    INDEX 01 02:38:00
  TRACK 124 AUDIO
    TITLE "9:cjc171_00062"
    INDEX 01 02:38:29
  TRACK 125 AUDIO
    TITLE "0:"
    INDEX 01 02:40:51
  TRACK 126 AUDIO
    TITLE "10:cjc171_00063"
    INDEX 01 02:41:33
  TRACK 127 AUDIO
    TITLE "0:"
    INDEX 01 02:43:54
  TRACK 128 AUDIO
    TITLE "8:cjc171_00064"
    INDEX 01 02:44:61
  TRACK 129 AUDIO
    TITLE "0:"
    INDEX 01 02:45:70
  TRACK 130 AUDIO
    TITLE "9:cjc171_00065"
    INDEX 01 02:46:27
  TRACK 131 AUDIO
    TITLE "0:"
    INDEX 01 02:48:69
  TRACK 132 AUDIO
    TITLE "10:cjc171_00066"
    INDEX 01 02:49:48
  TRACK 133 AUDIO
    TITLE "0:"
    INDEX 01 02:52:15
  TRACK 134 AUDIO
    TITLE "8:cjc171_00067"
    INDEX 01 02:53:21
  TRACK 135 AUDIO
    TITLE "0:"
    INDEX 01 02:54:30
  TRACK 136 AUDIO
    TITLE "9:cjc171_00068"
    INDEX 01 02:54:57
  TRACK 137 AUDIO
    TITLE "0:"
    INDEX 01 02:57:58
  TRACK 138 AUDIO
    TITLE "10:cjc171_00069"
    INDEX 01 02:58:38
  TRACK 139 AUDIO
    TITLE "0:"
    INDEX 01 03:01:38
  TRACK 140 AUDIO
    TITLE "8:cjc171_00070"
    INDEX 01 03:02:43
  TRACK 141 AUDIO
    TITLE "0:"
    INDEX 01 03:03:72
  TRACK 142 AUDIO
    TITLE "9:cjc171_00071"
    INDEX 01 03:04:26
  TRACK 143 AUDIO
    TITLE "0:"
    INDEX 01 03:06:16
  TRACK 144 AUDIO
    TITLE "10:cjc171_00072"
    INDEX 01 03:06:70
  TRACK 145 AUDIO
    TITLE "0:"
    INDEX 01 03:08:58
  TRACK 146 AUDIO
    TITLE "8:cjc171_00073"
    INDEX 01 03:09:63
  TRACK 147 AUDIO
    TITLE "0:"
    INDEX 01 03:11:21
  TRACK 148 AUDIO
    TITLE "9:cjc171_00074"
    INDEX 01 03:11:46
  TRACK 149 AUDIO
    TITLE "0:"
    INDEX 01 03:14:33
  TRACK 150 AUDIO
    TITLE "10:cjc171_00075"
    INDEX 01 03:15:13
  TRACK 151 AUDIO
    TITLE "0:"
    INDEX 01 03:17:72
  TRACK 152 AUDIO
    TITLE "8:cjc171_00076"
    INDEX 01 03:19:08
  TRACK 153 AUDIO
    TITLE "0:"
    INDEX 01 03:20:22
  TRACK 154 AUDIO
    TITLE "9:cjc171_00077"
    INDEX 01 03:20:53
  TRACK 155 AUDIO
    TITLE "0:"
    INDEX 01 03:22:64
  TRACK 156 AUDIO
    TITLE "10:cjc171_00078"
    INDEX 01 03:23:41
  TRACK 157 AUDIO
    TITLE "0:"
    INDEX 01 03:25:54
  TRACK 158 AUDIO
    TITLE "8:cjc171_00079"
    INDEX 01 03:26:57
  TRACK 159 AUDIO
    TITLE "0:"
    INDEX 01 03:28:05
  TRACK 160 AUDIO
    TITLE "9:cjc171_00080"
    INDEX 01 03:28:35
  TRACK 161 AUDIO
    TITLE "0:"
    INDEX 01 03:30:45
  TRACK 162 AUDIO
    TITLE "10:cjc171_00081"
    INDEX 01 03:31:25
  TRACK 163 AUDIO
    TITLE "0:"
    INDEX 01 03:33:36
  TRACK 164 AUDIO
    TITLE "8:cjc171_00082"
    INDEX 01 03:34:43
  TRACK 165 AUDIO
    TITLE "0:"
    INDEX 01 03:36:01
  TRACK 166 AUDIO
    TITLE "9:cjc171_00083"
    INDEX 01 03:36:30
  TRACK 167 AUDIO
    TITLE "0:"
    INDEX 01 03:39:35
  TRACK 168 AUDIO
    TITLE "10:cjc171_00084"
    INDEX 01 03:40:14
  TRACK 169 AUDIO
    TITLE "0:"
    INDEX 01 03:43:19
  TRACK 170 AUDIO
    TITLE "8:cjc171_00085"
    INDEX 01 03:44:26
  TRACK 171 AUDIO
    TITLE "0:"
    INDEX 01 03:45:43
  TRACK 172 AUDIO
    TITLE "9:cjc171_00086"
    INDEX 01 03:46:01
  TRACK 173 AUDIO
    TITLE "0:"
    INDEX 01 03:48:04
  TRACK 174 AUDIO
    TITLE "10:cjc171_00087"
    INDEX 01 03:48:59
  TRACK 175 AUDIO
    TITLE "0:"
    INDEX 01 03:50:66
  TRACK 176 AUDIO
    TITLE "8:cjc171_00088"
    INDEX 01 03:51:69
  TRACK 177 AUDIO
    TITLE "0:"
    INDEX 01 03:53:07
  TRACK 178 AUDIO
    TITLE "9:cjc171_00089"
    INDEX 01 03:53:39
  TRACK 179 AUDIO
    TITLE "0:"
    INDEX 01 03:55:45
  TRACK 180 AUDIO
    TITLE "10:cjc171_00090"
    INDEX 01 03:56:25
  TRACK 181 AUDIO
    TITLE "0:"
    INDEX 01 03:58:32
  TRACK 182 AUDIO
    TITLE "8:cjc171_00091"
    INDEX 01 03:59:37
  TRACK 183 AUDIO
    TITLE "0:"
    INDEX 01 04:00:56
  TRACK 184 AUDIO
    TITLE "9:cjc171_00092"
    INDEX 01 04:01:03
  TRACK 185 AUDIO
    TITLE "0:"
    INDEX 01 04:02:69
  TRACK 186 AUDIO
    TITLE "10:cjc171_00093"
    INDEX 01 04:03:49
  TRACK 187 AUDIO
    TITLE "0:"
    INDEX 01 04:05:40
  TRACK 188 AUDIO
    TITLE "8:cjc171_00094"
    INDEX 01 04:06:49
  TRACK 189 AUDIO
    TITLE "0:"
    INDEX 01 04:07:72
  TRACK 190 AUDIO
    TITLE "9:cjc171_00095"
    INDEX 01 04:08:26
  TRACK 191 AUDIO
    TITLE "0:"
    INDEX 01 04:10:43
  TRACK 192 AUDIO
    TITLE "10:cjc171_00096"
    INDEX 01 04:11:23
  TRACK 193 AUDIO
    TITLE "0:"
    INDEX 01 04:13:37
  TRACK 194 AUDIO
    TITLE "8:cjc171_00097"
    INDEX 01 04:14:43
  TRACK 195 AUDIO
    TITLE "0:"
    INDEX 01 04:15:72
  TRACK 196 AUDIO
    TITLE "9:cjc171_00098"
    INDEX 01 04:16:28
  TRACK 197 AUDIO
    TITLE "0:"
    INDEX 01 04:19:18
  TRACK 198 AUDIO
    TITLE "10:cjc171_00099"
    INDEX 01 04:19:73
  TRACK 199 AUDIO
    TITLE "0:"
    INDEX 01 04:22:64
  TRACK 200 AUDIO
    TITLE "8:cjc171_00100"
    INDEX 01 04:23:67
  TRACK 201 AUDIO
    TITLE "0:"
    INDEX 01 04:25:25
  TRACK 202 AUDIO
    TITLE "9:cjc171_00101"
    INDEX 01 04:25:48
  TRACK 203 AUDIO
    TITLE "0:"
    INDEX 01 04:27:59
  TRACK 204 AUDIO
    TITLE "10:cjc171_00102"
    INDEX 01 04:28:33
  TRACK 205 AUDIO
    TITLE "0:"
    INDEX 01 04:30:44
  TRACK 206 AUDIO
    TITLE "8:cjc171_00103"
    INDEX 01 04:31:41
  TRACK 207 AUDIO
    TITLE "0:"
    INDEX 01 04:32:62
  TRACK 208 AUDIO
    TITLE "9:cjc171_00104"
    INDEX 01 04:33:17
  TRACK 209 AUDIO
    TITLE "0:"
    INDEX 01 04:35:21
  TRACK 210 AUDIO
    TITLE "10:cjc171_00105"
    INDEX 01 04:35:74
  TRACK 211 AUDIO
    TITLE "0:"
    INDEX 01 04:38:04
  TRACK 212 AUDIO
    TITLE "8:cjc171_00106"
    INDEX 01 04:39:07
  TRACK 213 AUDIO
    TITLE "0:"
    INDEX 01 04:40:28
  TRACK 214 AUDIO
    TITLE "9:cjc171_00107"
    INDEX 01 04:40:52
  TRACK 215 AUDIO
    TITLE "0:"
    INDEX 01 04:43:05
  TRACK 216 AUDIO
    TITLE "10:cjc171_00108"
    INDEX 01 04:43:54
  TRACK 217 AUDIO
    TITLE "0:"
    INDEX 01 04:46:07
  TRACK 218 AUDIO
    TITLE "8:cjc171_00109"
    INDEX 01 04:47:11
  TRACK 219 AUDIO
    TITLE "0:"
    INDEX 01 04:48:34
  TRACK 220 AUDIO
    TITLE "9:cjc171_00110"
    INDEX 01 04:48:63
  TRACK 221 AUDIO
    TITLE "0:"
    INDEX 01 04:51:65
  TRACK 222 AUDIO
    TITLE "10:cjc171_00111"
    INDEX 01 04:52:47
  TRACK 223 AUDIO
    TITLE "0:"
    INDEX 01 04:55:48
  TRACK 224 AUDIO
    TITLE "8:cjc171_00112"
    INDEX 01 04:56:53
  TRACK 225 AUDIO
    TITLE "0:"
    INDEX 01 04:57:66
  TRACK 226 AUDIO
    TITLE "9:cjc171_00113"
    INDEX 01 04:58:22
  TRACK 227 AUDIO
    TITLE "0:"
    INDEX 01 05:00:51
  TRACK 228 AUDIO
    TITLE "10:cjc171_00114"
    INDEX 01 05:01:23
  TRACK 229 AUDIO
    TITLE "0:"
    INDEX 01 05:03:51
  TRACK 230 AUDIO
    TITLE "8:cjc171_00115"
    INDEX 01 05:04:39
  TRACK 231 AUDIO
    TITLE "0:"
    INDEX 01 05:05:70
  TRACK 232 AUDIO
    TITLE "9:cjc171_00116"
    INDEX 01 05:06:26
  TRACK 233 AUDIO
    TITLE "0:"
    INDEX 01 05:08:21
  TRACK 234 AUDIO
    TITLE "10:cjc171_00117"
    INDEX 01 05:09:01
  TRACK 235 AUDIO
    TITLE "0:"
    INDEX 01 05:10:73
  TRACK 236 AUDIO
    TITLE "8:cjc171_00118"
    INDEX 01 05:12:03
  TRACK 237 AUDIO
    TITLE "0:"
    INDEX 01 05:13:42
  TRACK 238 AUDIO
    TITLE "9:cjc171_00119"
    INDEX 01 05:14:00
  TRACK 239 AUDIO
    TITLE "0:"
    INDEX 01 05:17:41
  TRACK 240 AUDIO
    TITLE "10:cjc171_00120"
    INDEX 01 05:18:21
  TRACK 241 AUDIO
    TITLE "0:"
    INDEX 01 05:21:65
  TRACK 242 AUDIO
    TITLE "8:cjc171_00121"
    INDEX 01 05:22:68
  TRACK 243 AUDIO
    TITLE "0:"
    INDEX 01 05:24:18
  TRACK 244 AUDIO
    TITLE "9:cjc171_00122"
    INDEX 01 05:24:37
  TRACK 245 AUDIO
    TITLE "0:"
    INDEX 01 05:26:44
  TRACK 246 AUDIO
    TITLE "10:cjc171_00123"
    INDEX 01 05:27:18
  TRACK 247 AUDIO
    TITLE "0:"
    INDEX 01 05:29:25
  TRACK 248 AUDIO
    TITLE "8:cjc171_00124"
    INDEX 01 05:30:32
  TRACK 249 AUDIO
    TITLE "0:"
    INDEX 01 05:31:57
  TRACK 250 AUDIO
    TITLE "9:cjc171_00125"
    INDEX 01 05:32:04
  TRACK 251 AUDIO
    TITLE "0:"
    INDEX 01 05:34:28
  TRACK 252 AUDIO
    TITLE "10:cjc171_00126"
    INDEX 01 05:35:04
  TRACK 253 AUDIO
    TITLE "0:"
    INDEX 01 05:37:28
  TRACK 254 AUDIO
    TITLE "8:cjc171_00127"
    INDEX 01 05:38:36
  TRACK 255 AUDIO
    TITLE "0:"
    INDEX 01 05:39:51
  TRACK 256 AUDIO
    TITLE "9:cjc171_00128"
    INDEX 01 05:40:05
  TRACK 257 AUDIO
    TITLE "0:"
    INDEX 01 05:42:12
  TRACK 258 AUDIO
    TITLE "10:cjc171_00129"
    INDEX 01 05:42:67
  TRACK 259 AUDIO
    TITLE "0:"
    INDEX 01 05:44:73
  TRACK 260 AUDIO
    TITLE "8:cjc171_00130"
    INDEX 01 05:46:06
  TRACK 261 AUDIO
    TITLE "0:"
    INDEX 01 05:47:27
  TRACK 262 AUDIO
    TITLE "9:cjc171_00131"
    INDEX 01 05:47:54
  TRACK 263 AUDIO
    TITLE "0:"
    INDEX 01 05:50:15
  TRACK 264 AUDIO
    TITLE "10:cjc171_00132"
    INDEX 01 05:50:70
  TRACK 265 AUDIO
    TITLE "0:"
    INDEX 01 05:53:29
  TRACK 266 AUDIO
    TITLE "8:cjc171_00133"
    INDEX 01 05:54:35
  TRACK 267 AUDIO
    TITLE "0:"
    INDEX 01 05:55:50
  TRACK 268 AUDIO
    TITLE "9:cjc171_00134"
    INDEX 01 05:56:02
  TRACK 269 AUDIO
    TITLE "0:"
    INDEX 01 05:58:17
  TRACK 270 AUDIO
    TITLE "10:cjc171_00135"
    INDEX 01 05:58:70
  TRACK 271 AUDIO
    TITLE "0:"
    INDEX 01 06:01:09
  TRACK 272 AUDIO
    TITLE "8:cjc171_00136"
    INDEX 01 06:02:13
  TRACK 273 AUDIO
    TITLE "0:"
    INDEX 01 06:03:36
  TRACK 274 AUDIO
    TITLE "9:cjc171_00137"
    INDEX 01 06:03:65
  TRACK 275 AUDIO
    TITLE "0:"
    INDEX 01 06:07:10
  TRACK 276 AUDIO
    TITLE "10:cjc171_00138"
    INDEX 01 06:07:65
  TRACK 277 AUDIO
    TITLE "0:"
    INDEX 01 06:11:10
  TRACK 278 AUDIO
    TITLE "8:cjc171_00139"
    INDEX 01 06:12:15
  TRACK 279 AUDIO
    TITLE "0:"
    INDEX 01 06:13:22
  TRACK 280 AUDIO
    TITLE "9:cjc171_00140"
    INDEX 01 06:13:52
  TRACK 281 AUDIO
    TITLE "0:"
    INDEX 01 06:16:28
  TRACK 282 AUDIO
    TITLE "10:cjc171_00141"
    INDEX 01 06:17:06
  TRACK 283 AUDIO
    TITLE "0:"
    INDEX 01 06:19:58
  TRACK 284 AUDIO
    TITLE "8:cjc171_00142"
    INDEX 01 06:20:61
  TRACK 285 AUDIO
    TITLE "0:"
    INDEX 01 06:22:09
  TRACK 286 AUDIO
    TITLE "9:cjc171_00143"
    INDEX 01 06:22:39
  TRACK 287 AUDIO
    TITLE "0:"
    INDEX 01 06:24:73
  TRACK 288 AUDIO
    TITLE "10:cjc171_00144"
    INDEX 01 06:25:55
  TRACK 289 AUDIO
    TITLE "0:"
    INDEX 01 06:28:14
  TRACK 290 AUDIO
    TITLE "8:cjc171_00145"
    INDEX 01 06:29:17
  TRACK 291 AUDIO
    TITLE "0:"
    INDEX 01 06:30:38
  TRACK 292 AUDIO
    TITLE "9:cjc171_00146"
    INDEX 01 06:30:70
  TRACK 293 AUDIO
    TITLE "0:"
    INDEX 01 06:34:03
  TRACK 294 AUDIO
    TITLE "10:cjc171_00147"
    INDEX 01 06:34:58
  TRACK 295 AUDIO
    TITLE "0:"
    INDEX 01 06:37:66
  TRACK 296 AUDIO
    TITLE "8:cjc171_00148"
    INDEX 01 06:38:69
  TRACK 297 AUDIO
    TITLE "0:"
    INDEX 01 06:40:19
  TRACK 298 AUDIO
    TITLE "9:cjc171_00149"
    INDEX 01 06:40:50
  TRACK 299 AUDIO
    TITLE "0:"
    INDEX 01 06:43:33
  TRACK 300 AUDIO
    TITLE "10:cjc171_00150"
    INDEX 01 06:44:15
  TRACK 301 AUDIO
    TITLE "0:"
    INDEX 01 06:47:00
  TRACK 302 AUDIO
    TITLE "8:cjc171_00151"
    INDEX 01 06:48:05
  TRACK 303 AUDIO
    TITLE "0:"
    INDEX 01 06:49:24
  TRACK 304 AUDIO
    TITLE "9:cjc171_00152"
    INDEX 01 06:49:53
  TRACK 305 AUDIO
    TITLE "0:"
    INDEX 01 06:52:36
  TRACK 306 AUDIO
    TITLE "10:cjc171_00153"
    INDEX 01 06:53:18
  TRACK 307 AUDIO
    TITLE "0:"
    INDEX 01 06:56:01
  TRACK 308 AUDIO
    TITLE "8:cjc171_00154"
    INDEX 01 06:57:10
  TRACK 309 AUDIO
    TITLE "0:"
    INDEX 01 06:58:31
  TRACK 310 AUDIO
    TITLE "9:cjc171_00155"
    INDEX 01 06:58:48
  TRACK 311 AUDIO
    TITLE "0:"
    INDEX 01 07:00:41
  TRACK 312 AUDIO
    TITLE "10:cjc171_00156"
    INDEX 01 07:01:11
  TRACK 313 AUDIO
    TITLE "0:"
    INDEX 01 07:03:03
  TRACK 314 AUDIO
    TITLE "8:cjc171_00157"
    INDEX 01 07:04:06
  TRACK 315 AUDIO
    TITLE "0:"
    INDEX 01 07:05:43
  TRACK 316 AUDIO
    TITLE "9:cjc171_00158"
    INDEX 01 07:05:64
  TRACK 317 AUDIO
    TITLE "0:"
    INDEX 01 07:08:02
  TRACK 318 AUDIO
    TITLE "10:cjc171_00159"
    INDEX 01 07:08:55
  TRACK 319 AUDIO
    TITLE "0:"
    INDEX 01 07:10:67
  TRACK 320 AUDIO
    TITLE "8:cjc171_00160"
    INDEX 01 07:11:73
  TRACK 321 AUDIO
    TITLE "0:"
    INDEX 01 07:13:21
  TRACK 322 AUDIO
    TITLE "9:cjc171_00161"
    INDEX 01 07:13:40
  TRACK 323 AUDIO
    TITLE "0:"
    INDEX 01 07:15:63
  TRACK 324 AUDIO
    TITLE "10:cjc171_00162"
    INDEX 01 07:16:46
  TRACK 325 AUDIO
    TITLE "0:"
    INDEX 01 07:18:69
  TRACK 326 AUDIO
    TITLE "8:cjc171_00163"
    INDEX 01 07:20:07
  TRACK 327 AUDIO
    TITLE "0:"
    INDEX 01 07:21:22
  TRACK 328 AUDIO
    TITLE "9:cjc171_00164"
    INDEX 01 07:21:40
  TRACK 329 AUDIO
    TITLE "0:"
    INDEX 01 07:23:35
  TRACK 330 AUDIO
    TITLE "10:cjc171_00165"
    INDEX 01 07:24:13
  TRACK 331 AUDIO
    TITLE "0:"
    INDEX 01 07:26:07
  TRACK 332 AUDIO
    TITLE "8:cjc171_00166"
    INDEX 01 07:27:15
  TRACK 333 AUDIO
    TITLE "0:"
    INDEX 01 07:28:14
  TRACK 334 AUDIO
    TITLE "9:cjc171_00167"
    INDEX 01 07:28:34
  TRACK 335 AUDIO
    TITLE "0:"
    INDEX 01 07:31:67
  TRACK 336 AUDIO
    TITLE "10:cjc171_00168"
    INDEX 01 07:32:39
  TRACK 337 AUDIO
    TITLE "0:"
    INDEX 01 07:35:73
  TRACK 338 AUDIO
    TITLE "8:cjc171_00169"
    INDEX 01 07:37:01
  TRACK 339 AUDIO
    TITLE "0:"
    INDEX 01 07:38:19
  TRACK 340 AUDIO
    TITLE "9:cjc171_00170"
    INDEX 01 07:38:44
  TRACK 341 AUDIO
    TITLE "0:"
    INDEX 01 07:40:29
  TRACK 342 AUDIO
    TITLE "10:cjc171_00171"
    INDEX 01 07:41:11
  TRACK 343 AUDIO
    TITLE "0:"
    INDEX 01 07:42:69
  TRACK 344 AUDIO
    TITLE "8:cjc171_00172"
    INDEX 01 07:44:00
  TRACK 345 AUDIO
    TITLE "0:"
    INDEX 01 07:45:32
  TRACK 346 AUDIO
    TITLE "9:cjc171_00173"
    INDEX 01 07:45:66
  TRACK 347 AUDIO
    TITLE "0:"
    INDEX 01 07:48:33
  TRACK 348 AUDIO
    TITLE "10:cjc171_00174"
    INDEX 01 07:49:12
  TRACK 349 AUDIO
    TITLE "0:"
    INDEX 01 07:51:58
  TRACK 350 AUDIO
    TITLE "8:cjc171_00175"
    INDEX 01 07:52:64
  TRACK 351 AUDIO
    TITLE "0:"
    INDEX 01 07:54:14
  TRACK 352 AUDIO
    TITLE "9:cjc171_00176"
    INDEX 01 07:54:43
  TRACK 353 AUDIO
    TITLE "0:"
    INDEX 01 07:57:53
  TRACK 354 AUDIO
    TITLE "10:cjc171_00177"
    INDEX 01 07:58:33
  TRACK 355 AUDIO
    TITLE "0:"
    INDEX 01 08:01:39
  TRACK 356 AUDIO
    TITLE "8:cjc171_00178"
    INDEX 01 08:02:43
  TRACK 357 AUDIO
    TITLE "0:"
    INDEX 01 08:03:58
  TRACK 358 AUDIO
    TITLE "9:cjc171_00179"
    INDEX 01 08:04:12
  TRACK 359 AUDIO
    TITLE "0:"
    INDEX 01 08:06:54
  TRACK 360 AUDIO
    TITLE "10:cjc171_00180"
    INDEX 01 08:07:34
  TRACK 361 AUDIO
    TITLE "0:"
    INDEX 01 08:10:03
  TRACK 362 AUDIO
    TITLE "8:cjc171_00181"
    INDEX 01 08:11:06
  TRACK 363 AUDIO
    TITLE "0:"
    INDEX 01 08:12:29
  TRACK 364 AUDIO
    TITLE "9:cjc171_00182"
    INDEX 01 08:12:61
  TRACK 365 AUDIO
    TITLE "0:"
    INDEX 01 08:14:57
  TRACK 366 AUDIO
    TITLE "10:cjc171_00183"
    INDEX 01 08:15:37
  TRACK 367 AUDIO
    TITLE "0:"
    INDEX 01 08:17:36
  TRACK 368 AUDIO
    TITLE "8:cjc171_00184"
    INDEX 01 08:18:40
  TRACK 369 AUDIO
    TITLE "0:"
    INDEX 01 08:19:55
  TRACK 370 AUDIO
    TITLE "9:cjc171_00185"
    INDEX 01 08:20:07
  TRACK 371 AUDIO
    TITLE "0:"
    INDEX 01 08:22:18
  TRACK 372 AUDIO
    TITLE "10:cjc171_00186"
    INDEX 01 08:22:73
  TRACK 373 AUDIO
    TITLE "0:"
    INDEX 01 08:25:08
  TRACK 374 AUDIO
    TITLE "8:cjc171_00187"
    INDEX 01 08:26:16
  TRACK 375 AUDIO
    TITLE "0:"
    INDEX 01 08:27:48
  TRACK 376 AUDIO
    TITLE "9:cjc171_00188"
    INDEX 01 08:28:03
  TRACK 377 AUDIO
    TITLE "0:"
    INDEX 01 08:30:09
  TRACK 378 AUDIO
    TITLE "10:cjc171_00189"
    INDEX 01 08:30:64
  TRACK 379 AUDIO
    TITLE "0:"
    INDEX 01 08:32:73
  TRACK 380 AUDIO
    TITLE "8:cjc171_00190"
    INDEX 01 08:34:03
  TRACK 381 AUDIO
    TITLE "0:"
    INDEX 01 08:35:26
  TRACK 382 AUDIO
    TITLE "9:cjc171_00191"
    INDEX 01 08:35:56
  TRACK 383 AUDIO
    TITLE "0:"
    INDEX 01 08:37:62
  TRACK 384 AUDIO
    TITLE "10:cjc171_00192"
    INDEX 01 08:38:42
  TRACK 385 AUDIO
    TITLE "0:"
    INDEX 01 08:40:51
  TRACK 386 AUDIO
    TITLE "8:cjc171_00193"
    INDEX 01 08:41:56
  TRACK 387 AUDIO
    TITLE "0:"
    INDEX 01 08:42:73
  TRACK 388 AUDIO
    TITLE "9:cjc171_00194"
    INDEX 01 08:43:28
  TRACK 389 AUDIO
    TITLE "0:"
    INDEX 01 08:45:44
  TRACK 390 AUDIO
    TITLE "10:cjc171_00195"
    INDEX 01 08:46:22
  TRACK 391 AUDIO
    TITLE "0:"
    INDEX 01 08:48:39
  TRACK 392 AUDIO
    TITLE "8:cjc171_00196"
    INDEX 01 08:49:42
  TRACK 393 AUDIO
    TITLE "0:"
    INDEX 01 08:50:61
  TRACK 394 AUDIO
    TITLE "9:cjc171_00197"
    INDEX 01 08:51:16
  TRACK 395 AUDIO
    TITLE "0:"
    INDEX 01 08:53:38
  TRACK 396 AUDIO
    TITLE "10:cjc171_00198"
    INDEX 01 08:54:16
  TRACK 397 AUDIO
    TITLE "0:"
    INDEX 01 08:56:40
  TRACK 398 AUDIO
    TITLE "8:cjc171_00199"
    INDEX 01 08:57:46
  TRACK 399 AUDIO
    TITLE "0:"
    INDEX 01 08:58:57
  TRACK 400 AUDIO
    TITLE "9:cjc171_00200"
    INDEX 01 08:59:13
  TRACK 401 AUDIO
    TITLE "0:"
    INDEX 01 09:00:73
  TRACK 402 AUDIO
    TITLE "10:cjc171_00201"
    INDEX 01 09:01:55
  TRACK 403 AUDIO
    TITLE "0:"
    INDEX 01 09:03:42
  TRACK 404 AUDIO
    TITLE "8:cjc171_00202"
    INDEX 01 09:04:48
  TRACK 405 AUDIO
    TITLE "0:"
    INDEX 01 09:05:69
  TRACK 406 AUDIO
    TITLE "9:cjc171_00203"
    INDEX 01 09:06:23
  TRACK 407 AUDIO
    TITLE "0:"
    INDEX 01 09:08:08
  TRACK 408 AUDIO
    TITLE "10:cjc171_00204"
    INDEX 01 09:08:63
  TRACK 409 AUDIO
    TITLE "0:"
    INDEX 01 09:10:46
  TRACK 410 AUDIO
    TITLE "8:cjc171_00205"
    INDEX 01 09:11:53
  TRACK 411 AUDIO
    TITLE "0:"
    INDEX 01 09:13:07
  TRACK 412 AUDIO
    TITLE "9:cjc171_00206"
    INDEX 01 09:13:39
  TRACK 413 AUDIO
    TITLE "0:"
    INDEX 01 09:16:39
  TRACK 414 AUDIO
    TITLE "10:cjc171_00207"
    INDEX 01 09:17:15
  TRACK 415 AUDIO
    TITLE "0:"
    INDEX 01 09:20:15
  TRACK 416 AUDIO
    TITLE "8:cjc171_00208"
    INDEX 01 09:21:19
  TRACK 417 AUDIO
    TITLE "0:"
    INDEX 01 09:22:69
  TRACK 418 AUDIO
    TITLE "9:cjc171_00209"
    INDEX 01 09:23:25
  TRACK 419 AUDIO
    TITLE "0:"
    INDEX 01 09:25:54
  TRACK 420 AUDIO
    TITLE "10:cjc171_00210"
    INDEX 01 09:26:31
  TRACK 421 AUDIO
    TITLE "0:"
    INDEX 01 09:28:60
  TRACK 422 AUDIO
    TITLE "8:cjc171_00211"
    INDEX 01 09:29:65
  TRACK 423 AUDIO
    TITLE "0:"
    INDEX 01 09:31:29
  TRACK 424 AUDIO
    TITLE "9:cjc171_00212"
    INDEX 01 09:31:62
  TRACK 425 AUDIO
    TITLE "0:"
    INDEX 01 09:35:03
  TRACK 426 AUDIO
    TITLE "10:cjc171_00213"
    INDEX 01 09:35:60
  TRACK 427 AUDIO
    TITLE "0:"
    INDEX 01 09:38:72
  TRACK 428 AUDIO
    TITLE "8:cjc171_00214"
    INDEX 01 09:40:04
  TRACK 429 AUDIO
    TITLE "0:"
    INDEX 01 09:41:13
  TRACK 430 AUDIO
    TITLE "9:cjc171_00215"
    INDEX 01 09:41:33
  TRACK 431 AUDIO
    TITLE "0:"
    INDEX 01 09:43:44
  TRACK 432 AUDIO
    TITLE "10:cjc171_00216"
    INDEX 01 09:44:16
  TRACK 433 AUDIO
    TITLE "0:"
    INDEX 01 09:46:24
  TRACK 434 AUDIO
    TITLE "8:cjc171_00217"
    INDEX 01 09:47:30
  TRACK 435 AUDIO
    TITLE "0:"
    INDEX 01 09:48:59
  TRACK 436 AUDIO
    TITLE "9:cjc171_00218"
    INDEX 01 09:49:13
  TRACK 437 AUDIO
    TITLE "0:"
    INDEX 01 09:51:16
  TRACK 438 AUDIO
    TITLE "10:cjc171_00219"
    INDEX 01 09:51:73
  TRACK 439 AUDIO
    TITLE "0:"
    INDEX 01 09:54:00
  TRACK 440 AUDIO
    TITLE "8:cjc171_00220"
    INDEX 01 09:55:08
  TRACK 441 AUDIO
    TITLE "0:"
    INDEX 01 09:56:27
  TRACK 442 AUDIO
    TITLE "9:cjc171_00221"
    INDEX 01 09:56:56
  TRACK 443 AUDIO
    TITLE "0:"
    INDEX 01 09:58:55
  TRACK 444 AUDIO
    TITLE "10:cjc171_00222"
    INDEX 01 09:59:35
  TRACK 445 AUDIO
    TITLE "0:"
    INDEX 01 10:01:32
  TRACK 446 AUDIO
    TITLE "8:cjc171_00223"
    INDEX 01 10:02:37
  TRACK 447 AUDIO
    TITLE "0:"
    INDEX 01 10:03:60
  TRACK 448 AUDIO
    TITLE "9:cjc171_00224"
    INDEX 01 10:04:14
  TRACK 449 AUDIO
    TITLE "0:"
    INDEX 01 10:06:21
  TRACK 450 AUDIO
    TITLE "10:cjc171_00225"
    INDEX 01 10:07:03
  TRACK 451 AUDIO
    TITLE "0:"
    INDEX 01 10:09:10
  TRACK 452 AUDIO
    TITLE "8:cjc171_00226"
    INDEX 01 10:10:09
  TRACK 453 AUDIO
    TITLE "0:"
    INDEX 01 10:11:40
  TRACK 454 AUDIO
    TITLE "9:cjc171_00227"
    INDEX 01 10:11:69
  TRACK 455 AUDIO
    TITLE "0:"
    INDEX 01 10:14:30
  TRACK 456 AUDIO
    TITLE "10:cjc171_00228"
    INDEX 01 10:15:06
  TRACK 457 AUDIO
    TITLE "0:"
    INDEX 01 10:17:41
  TRACK 458 AUDIO
    TITLE "8:cjc171_00229"
    INDEX 01 10:18:42
  TRACK 459 AUDIO
    TITLE "0:"
    INDEX 01 10:19:65
  TRACK 460 AUDIO
    TITLE "9:cjc171_00230"
    INDEX 01 10:20:15
  TRACK 461 AUDIO
    TITLE "0:"
    INDEX 01 10:22:61
  TRACK 462 AUDIO
    TITLE "10:cjc171_00231"
    INDEX 01 10:23:45
  TRACK 463 AUDIO
    TITLE "0:"
    INDEX 01 10:26:22
  TRACK 464 AUDIO
    TITLE "8:cjc171_00232"
    INDEX 01 10:27:27
  TRACK 465 AUDIO
    TITLE "0:"
    INDEX 01 10:28:44
  TRACK 466 AUDIO
    TITLE "9:cjc171_00233"
    INDEX 01 10:28:72
  TRACK 467 AUDIO
    TITLE "0:"
    INDEX 01 10:31:62
  TRACK 468 AUDIO
    TITLE "10:cjc171_00234"
    INDEX 01 10:32:42
  TRACK 469 AUDIO
    TITLE "0:"
    INDEX 01 10:35:31
  TRACK 470 AUDIO
    TITLE "8:cjc171_00235"
    INDEX 01 10:36:38
  TRACK 471 AUDIO
    TITLE "0:"
    INDEX 01 10:37:53
  TRACK 472 AUDIO
    TITLE "9:cjc171_00236"
    INDEX 01 10:38:07
  TRACK 473 AUDIO
    TITLE "0:"
    INDEX 01 10:40:08
  TRACK 474 AUDIO
    TITLE "10:cjc171_00237"
    INDEX 01 10:40:61
  TRACK 475 AUDIO
    TITLE "0:"
    INDEX 01 10:42:64
  TRACK 476 AUDIO
    TITLE "8:cjc171_00238"
    INDEX 01 10:43:67
  TRACK 477 AUDIO
    TITLE "0:"
    INDEX 01 10:45:19
  TRACK 478 AUDIO
    TITLE "9:cjc171_00239"
    INDEX 01 10:45:57
  TRACK 479 AUDIO
    TITLE "0:"
    INDEX 01 10:49:03
  TRACK 480 AUDIO
    TITLE "10:cjc171_00240"
    INDEX 01 10:49:58
  TRACK 481 AUDIO
    TITLE "0:"
    INDEX 01 10:53:03
  TRACK 482 AUDIO
    TITLE "8:cjc171_00241"
    INDEX 01 10:54:07
  TRACK 483 AUDIO
    TITLE "0:"
    INDEX 01 10:55:45
  TRACK 484 AUDIO
    TITLE "9:cjc171_00242"
    INDEX 01 10:56:00
  TRACK 485 AUDIO
    TITLE "0:"
    INDEX 01 10:58:26
  TRACK 486 AUDIO
    TITLE "10:cjc171_00243"
    INDEX 01 10:59:06
  TRACK 487 AUDIO
    TITLE "0:"
    INDEX 01 11:01:32
  TRACK 488 AUDIO
    TITLE "8:cjc171_00244"
    INDEX 01 11:02:37
  TRACK 489 AUDIO
    TITLE "0:"
    INDEX 01 11:03:62
  TRACK 490 AUDIO
    TITLE "9:cjc171_00245"
    INDEX 01 11:04:21
  TRACK 491 AUDIO
    TITLE "0:"
    INDEX 01 11:06:06
  TRACK 492 AUDIO
    TITLE "10:cjc171_00246"
    INDEX 01 11:06:61
  TRACK 493 AUDIO
    TITLE "0:"
    INDEX 01 11:08:46
  TRACK 494 AUDIO
    TITLE "8:cjc171_00247"
    INDEX 01 11:09:49
  TRACK 495 AUDIO
    TITLE "0:"
    INDEX 01 11:11:01
  TRACK 496 AUDIO
    TITLE "9:cjc171_00248"
    INDEX 01 11:11:30
  TRACK 497 AUDIO
    TITLE "0:"
    INDEX 01 11:14:41
  TRACK 498 AUDIO
    TITLE "10:cjc171_00249"
    INDEX 01 11:15:20
  TRACK 499 AUDIO
    TITLE "0:"
    INDEX 01 11:18:30
  TRACK 500 AUDIO
    TITLE "8:cjc171_00250"
    INDEX 01 11:19:34
  TRACK 501 AUDIO
    TITLE "0:"
    INDEX 01 11:20:51
  TRACK 502 AUDIO
    TITLE "9:cjc171_00251"
    INDEX 01 11:21:09
  TRACK 503 AUDIO
    TITLE "0:"
    INDEX 01 11:23:16
  TRACK 504 AUDIO
    TITLE "10:cjc171_00252"
    INDEX 01 11:23:69
  TRACK 505 AUDIO
    TITLE "0:"
    INDEX 01 11:26:01
  TRACK 506 AUDIO
    TITLE "8:cjc171_00253"
    INDEX 01 11:27:06
  TRACK 507 AUDIO
    TITLE "0:"
    INDEX 01 11:28:21
  TRACK 508 AUDIO
    TITLE "9:cjc171_00254"
    INDEX 01 11:28:58
  TRACK 509 AUDIO
    TITLE "0:"
    INDEX 01 11:31:21
  TRACK 510 AUDIO
    TITLE "10:cjc171_00255"
    INDEX 01 11:31:74
  TRACK 511 AUDIO
    TITLE "0:"
    INDEX 01 11:34:39
  TRACK 512 AUDIO
    TITLE "8:cjc171_00256"
    INDEX 01 11:35:43
  TRACK 513 AUDIO
    TITLE "0:"
    INDEX 01 11:36:58
  TRACK 514 AUDIO
    TITLE "9:cjc171_00257"
    INDEX 01 11:37:12
  TRACK 515 AUDIO
    TITLE "0:"
    INDEX 01 11:39:03
  TRACK 516 AUDIO
    TITLE "10:cjc171_00258"
    INDEX 01 11:39:58
  TRACK 517 AUDIO
    TITLE "0:"
    INDEX 01 11:41:47
  TRACK 518 AUDIO
    TITLE "8:cjc171_00259"
    INDEX 01 11:42:55
  TRACK 519 AUDIO
    TITLE "0:"
    INDEX 01 11:43:68
  TRACK 520 AUDIO
    TITLE "9:cjc171_00260"
    INDEX 01 11:44:22
  TRACK 521 AUDIO
    TITLE "0:"
    INDEX 01 11:47:07
  TRACK 522 AUDIO
    TITLE "10:cjc171_00261"
    INDEX 01 11:47:64
  TRACK 523 AUDIO
    TITLE "0:"
    INDEX 01 11:50:48
  TRACK 524 AUDIO
    TITLE "8:cjc171_00262"
    INDEX 01 11:51:51
  TRACK 525 AUDIO
    TITLE "0:"
    INDEX 01 11:53:03
  TRACK 526 AUDIO
    TITLE "9:cjc171_00263"
    INDEX 01 11:53:35
  TRACK 527 AUDIO
    TITLE "0:"
    INDEX 01 11:55:36
  TRACK 528 AUDIO
    TITLE "10:cjc171_00264"
    INDEX 01 11:56:15
  TRACK 529 AUDIO
    TITLE "0:"
    INDEX 01 11:58:16
  TRACK 530 AUDIO
    TITLE "8:cjc171_00265"
    INDEX 01 11:59:20
  TRACK 531 AUDIO
    TITLE "0:"
    INDEX 01 12:00:39
  TRACK 532 AUDIO
    TITLE "9:cjc171_00266"
    INDEX 01 12:00:70
  TRACK 533 AUDIO
    TITLE "0:"
    INDEX 01 12:03:12
  TRACK 534 AUDIO
    TITLE "10:cjc171_00267"
    INDEX 01 12:03:66
  TRACK 535 AUDIO
    TITLE "0:"
    INDEX 01 12:06:08
  TRACK 536 AUDIO
    TITLE "8:cjc171_00268"
    INDEX 01 12:07:13
  TRACK 537 AUDIO
    TITLE "0:"
    INDEX 01 12:08:40
  TRACK 538 AUDIO
    TITLE "9:cjc171_00269"
    INDEX 01 12:08:70
  TRACK 539 AUDIO
    TITLE "0:"
    INDEX 01 12:10:68
  TRACK 540 AUDIO
    TITLE "10:cjc171_00270"
    INDEX 01 12:11:52
  TRACK 541 AUDIO
    TITLE "0:"
    INDEX 01 12:13:49
  TRACK 542 AUDIO
    TITLE "8:cjc171_00271"
    INDEX 01 12:14:55
  TRACK 543 AUDIO
    TITLE "0:"
    INDEX 01 12:16:01
  TRACK 544 AUDIO
    TITLE "9:cjc171_00272"
    INDEX 01 12:16:30
  TRACK 545 AUDIO
    TITLE "0:"
    INDEX 01 12:18:35
  TRACK 546 AUDIO
    TITLE "10:cjc171_00273"
    INDEX 01 12:19:15
  TRACK 547 AUDIO
    TITLE "0:"
    INDEX 01 12:21:21
  TRACK 548 AUDIO
    TITLE "8:cjc171_00274"
    INDEX 01 12:22:25
  TRACK 549 AUDIO
    TITLE "0:"
    INDEX 01 12:23:44
  TRACK 550 AUDIO
    TITLE "9:cjc171_00275"
    INDEX 01 12:23:73
  TRACK 551 AUDIO
    TITLE "0:"
    INDEX 01 12:26:09
  TRACK 552 AUDIO
    TITLE "10:cjc171_00276"
    INDEX 01 12:26:64
  TRACK 553 AUDIO
    TITLE "0:"
    INDEX 01 12:28:74
  TRACK 554 AUDIO
    TITLE "8:cjc171_00277"
    INDEX 01 12:29:74
  TRACK 555 AUDIO
    TITLE "0:"
    INDEX 01 12:31:18
  TRACK 556 AUDIO
    TITLE "9:cjc171_00278"
    INDEX 01 12:31:43
  TRACK 557 AUDIO
    TITLE "0:"
    INDEX 01 12:33:62
  TRACK 558 AUDIO
    TITLE "10:cjc171_00279"
    INDEX 01 12:34:40
  TRACK 559 AUDIO
    TITLE "0:"
    INDEX 01 12:36:60
  TRACK 560 AUDIO
    TITLE "8:cjc171_00280"
    INDEX 01 12:37:65
  TRACK 561 AUDIO
    TITLE "0:"
    INDEX 01 12:39:21
  TRACK 562 AUDIO
    TITLE "9:cjc171_00281"
    INDEX 01 12:39:49
  TRACK 563 AUDIO
    TITLE "0:"
    INDEX 01 12:42:43
  TRACK 564 AUDIO
    TITLE "10:cjc171_00282"
    INDEX 01 12:43:25
  TRACK 565 AUDIO
    TITLE "0:"
    INDEX 01 12:46:15
  TRACK 566 AUDIO
    TITLE "8:cjc171_00283"
    INDEX 01 12:47:19
  TRACK 567 AUDIO
    TITLE "0:"
    INDEX 01 12:48:46
  TRACK 568 AUDIO
    TITLE "9:cjc171_00284"
    INDEX 01 12:49:00
  TRACK 569 AUDIO
    TITLE "0:"
    INDEX 01 12:51:40
  TRACK 570 AUDIO
    TITLE "10:cjc171_00285"
    INDEX 01 12:52:20
  TRACK 571 AUDIO
    TITLE "0:"
    INDEX 01 12:54:62
  TRACK 572 AUDIO
    TITLE "8:cjc171_00286"
    INDEX 01 12:55:65
  TRACK 573 AUDIO
    TITLE "0:"
    INDEX 01 12:57:05
  TRACK 574 AUDIO
    TITLE "9:cjc171_00287"
    INDEX 01 12:57:35
  TRACK 575 AUDIO
    TITLE "0:"
    INDEX 01 12:59:67
  TRACK 576 AUDIO
    TITLE "10:cjc171_00288"
    INDEX 01 13:00:45
  TRACK 577 AUDIO
    TITLE "0:"
    INDEX 01 13:03:02
  TRACK 578 AUDIO
    TITLE "8:cjc171_00289"
    INDEX 01 13:04:05
  TRACK 579 AUDIO
    TITLE "0:"
    INDEX 01 13:05:26
  TRACK 580 AUDIO
    TITLE "9:cjc171_00290"
    INDEX 01 13:05:56
  TRACK 581 AUDIO
    TITLE "0:"
    INDEX 01 13:08:56
  TRACK 582 AUDIO
    TITLE "10:cjc171_00291"
    INDEX 01 13:09:36
  TRACK 583 AUDIO
    TITLE "0:"
    INDEX 01 13:12:36
  TRACK 584 AUDIO
    TITLE "8:cjc171_00292"
    INDEX 01 13:13:40
  TRACK 585 AUDIO
    TITLE "0:"
    INDEX 01 13:15:05
  TRACK 586 AUDIO
    TITLE "9:cjc171_00293"
    INDEX 01 13:15:25
  TRACK 587 AUDIO
    TITLE "0:"
    INDEX 01 13:17:53
  TRACK 588 AUDIO
    TITLE "10:cjc171_00294"
    INDEX 01 13:18:31
  TRACK 589 AUDIO
    TITLE "0:"
    INDEX 01 13:20:57
  TRACK 590 AUDIO
    TITLE "8:cjc171_00295"
    INDEX 01 13:21:63
  TRACK 591 AUDIO
    TITLE "0:"
    INDEX 01 13:23:05
  TRACK 592 AUDIO
    TITLE "9:cjc171_00296"
    INDEX 01 13:23:32
  TRACK 593 AUDIO
    TITLE "0:"
    INDEX 01 13:25:55
  TRACK 594 AUDIO
    TITLE "10:cjc171_00297"
    INDEX 01 13:26:32
  TRACK 595 AUDIO
    TITLE "0:"
    INDEX 01 13:28:53
  TRACK 596 AUDIO
    TITLE "8:cjc171_00298"
    INDEX 01 13:29:56
  TRACK 597 AUDIO
    TITLE "0:"
    INDEX 01 13:31:02
  TRACK 598 AUDIO
    TITLE "9:cjc171_00299"
    INDEX 01 13:31:20
  TRACK 599 AUDIO
    TITLE "0:"
    INDEX 01 13:33:56
  TRACK 600 AUDIO
    TITLE "10:cjc171_00300"
    INDEX 01 13:34:28
  TRACK 601 AUDIO
    TITLE "0:"
    INDEX 01 13:36:62
